<?xml version="1.0" encoding="UTF-8"?>
<svg width="16" height="16" viewBox="0 0 16 16" fill="none" xmlns="http://www.w3.org/2000/svg">
    <path fillRule="evenodd" clipRule="evenodd" d="M8 2C4.68629 2 2 4.68629 2 8C2 11.3137 4.68629 14 8 14C11.3137 14 14 11.3137 14 8C14 4.68629 11.3137 2 8 2ZM7.4 5C7.4 4.66863 7.66863 4.4 8 4.4C8.33137 4.4 8.6 4.66863 8.6 5V8.6C8.6 8.93137 8.33137 9.2 8 9.2C7.66863 9.2 7.4 8.93137 7.4 8.6V5ZM8.6 10.6C8.6 10.2686 8.33137 10 8 10C7.66863 10 7.4 10.2686 7.4 10.6C7.4 10.9314 7.66863 11.2 8 11.2C8.33137 11.2 8.6 10.9314 8.6 10.6Z" fill="#FF9800"/>
</svg>