<?xml version="1.0" encoding="UTF-8"?>
<svg width="16" height="16" viewBox="0 0 16 16" fill="none" xmlns="http://www.w3.org/2000/svg">
    <path fillRule="evenodd" clipRule="evenodd" d="M8 2C4.68629 2 2 4.68629 2 8C2 11.3137 4.68629 14 8 14C11.3137 14 14 11.3137 14 8C14 4.68629 11.3137 2 8 2ZM5.79289 5.79289C6.18342 5.40237 6.81658 5.40237 7.20711 5.79289L8 6.58579L8.79289 5.79289C9.18342 5.40237 9.81658 5.40237 10.2071 5.79289C10.5976 6.18342 10.5976 6.81658 10.2071 7.20711L9.41421 8L10.2071 8.79289C10.5976 9.18342 10.5976 9.81658 10.2071 10.2071C9.81658 10.5976 9.18342 10.5976 8.79289 10.2071L8 9.41421L7.20711 10.2071C6.81658 10.5976 6.18342 10.5976 5.79289 10.2071C5.40237 9.81658 5.40237 9.18342 5.79289 8.79289L6.58579 8L5.79289 7.20711C5.40237 6.81658 5.40237 6.18342 5.79289 5.79289Z" fill="#F44336"/>
</svg>