<?xml version="1.0" encoding="UTF-8"?>
<svg width="16" height="16" viewBox="0 0 16 16" fill="none" xmlns="http://www.w3.org/2000/svg">
    <path fillRule="evenodd" clipRule="evenodd" d="M8 2C4.68629 2 2 4.68629 2 8C2 11.3137 4.68629 14 8 14C11.3137 14 14 11.3137 14 8C14 4.68629 11.3137 2 8 2ZM11.2071 6.79289C11.5976 6.40237 11.5976 5.76921 11.2071 5.37868C10.8166 4.98816 10.1834 4.98816 9.79289 5.37868L7 8.17157L6.20711 7.37868C5.81658 6.98816 5.18342 6.98816 4.79289 7.37868C4.40237 7.76921 4.40237 8.40237 4.79289 8.79289L6.29289 10.2929C6.68342 10.6834 7.31658 10.6834 7.70711 10.2929L11.2071 6.79289Z" fill="#4CAF50"/>
</svg>