<?xml version="1.0" encoding="UTF-8"?>
<svg width="16" height="16" viewBox="0 0 16 16" fill="none" xmlns="http://www.w3.org/2000/svg">
    <path fillRule="evenodd" clipRule="evenodd" d="M8.83832 2.32621C8.4086 1.65791 7.5914 1.65791 7.16168 2.32621L1.96168 10.7262C1.53196 11.3945 2.04056 12.2 2.8 12.2H13.2C13.9594 12.2 14.468 11.3945 14.0383 10.7262L8.83832 2.32621ZM8 4.4C8.33137 4.4 8.6 4.66863 8.6 5V8.2C8.6 8.53137 8.33137 8.8 8 8.8C7.66863 8.8 7.4 8.53137 7.4 8.2V5C7.4 4.66863 7.66863 4.4 8 4.4ZM8 10.8C8.33137 10.8 8.6 10.5314 8.6 10.2C8.6 9.86863 8.33137 9.6 8 9.6C7.66863 9.6 7.4 9.86863 7.4 10.2C7.4 10.5314 7.66863 10.8 8 10.8Z" fill="#FFC107"/>
</svg>